# xmcd
#
# Track frame offsets:
#	150
#	10443
#	22759
#	35921
#	48909
#	66165
#	80345
#	93320
#	104420
#	116383
#	132157
#	146590
#	157821
#	174477
#	192010
#	208366
#	223158
#	236387
#	252526
#	265138
#	283128
#	300293
#	316542
#	327532
#
# Disc length: 4555 seconds
#
# Revision: 0
# Processed by: cddbd v1.5.2PL0 Copyright (c) Steve Scherf et al.
# Submitted via: EZCDAudioConverter 5.0.3.1
#
DISCID=5011c918
DTITLE=Jacques Brel - Live In Paris 
DYEAR=1960
DGENRE=Chanson
TTITLE0=Les Prenoms De Paris
TTITLE1=Rosa
TTITLE2=Le Plat Pays
TTITLE3=Bruxelles
TTITLE4=Les Paumes Du Petit Matin
TTITLE5=La Statue
TTITLE6=Les Bourgeois
TTITLE7=Marieke
TTITLE8=Madeleine
TTITLE9=Les Biches
TTITLE10=Zangra
TTITLE11=Le Caporal Casse-Pompom
TTITLE12=L'Ivrogne
TTITLE13=La Valse A Mille Temps
TTITLE14=Ne Me Quittes Pas
TTITLE15=Le Moribund
TTITLE16=Quand On N'a Que L'Amour
TTITLE17=Seul
TTITLE18=La Dame Patronesse
TTITLE19=Les Singes
TTITLE20=Ne Me Quittes Pas ('61)
TTITLE21=L'Air De La Betise
TTITLE22=La Colombe
TTITLE23=Quand On N'a Que L'Amour ('61)
EXTD=
EXTT0=
EXTT1=
EXTT2=
EXTT3=
EXTT4=
EXTT5=
EXTT6=
EXTT7=
EXTT8=
EXTT9=
EXTT10=
EXTT11=
EXTT12=
EXTT13=
EXTT14=
EXTT15=
EXTT16=
EXTT17=
EXTT18=
EXTT19=
EXTT20=
EXTT21=
EXTT22=
EXTT23=
PLAYORDER=
